General
Complete name                  : Cloud.Atlas.2012.720p.BluRay.DTS.x264-AMX.mkv
Format                         : Matroska
Format version                 : Version 4 / Version 2
File size                      : 4.95 GiB
Duration                       : 2h 52mn
Overall bit rate               : 4 116 Kbps
Writing application            : mkvmerge v6.0.0 ('Coming Up For Air') built on Jan 20 2013 09:52:00
Writing library                : libebml v1.3.0 + libmatroska v1.4.0

Video
ID                             : 1
Format                         : AVC
Format/Info                    : Advanced Video Codec
Format profile                 : High@L4.0
Format settings, CABAC         : Yes
Format settings, ReFrames      : 8 frames
Codec ID                       : V_MPEG4/ISO/AVC
Duration                       : 2h 52mn
Bit rate                       : 2 525 Kbps
Width                          : 1 280 pixels
Height                         : 544 pixels
Display aspect ratio           : 2.35:1
Frame rate mode                : Constant
Frame rate                     : 23.976 fps
Color space                    : YUV
Chroma subsampling             : 4:2:0
Bit depth                      : 8 bits
Scan type                      : Progressive
Bits/(Pixel*Frame)             : 0.151
Stream size                    : 3.04 GiB (61%)
Writing library                : x264 core 129 r2245 bc13772
Default                        : Yes
Forced                         : No

Audio
ID                             : 2
Format                         : DTS
Format/Info                    : Digital Theater Systems
Mode                           : 16
Format settings, Endianness    : Big
Codec ID                       : A_DTS
Duration                       : 2h 52mn
Bit rate mode                  : Constant
Bit rate                       : 1 509 Kbps
Channel(s)                     : 6 channels
Channel positions              : Front: L C R, Side: L R, LFE
Sampling rate                  : 48.0 KHz
Bit depth                      : 24 bits
Compression mode               : Lossy
Stream size                    : 1.81 GiB (37%)
Language                       : English
Default                        : Yes
Forced                         : No

Chapters: None at source!
Subs: None at source!
Source: Cloud.Atlas.2012.1080p.Bluray.x264.DTS-NYDIC Thanks!!!